<?xml version="1.0" encoding="UTF-8"?>
<!DOCTYPE svg PUBLIC "-//W3C//DTD SVG 1.1//EN" "http://www.w3.org/Graphics/SVG/1.1/DTD/svg11.dtd">
<!-- Creator: CorelDRAW 2018 (64-Bit) -->
<svg xmlns="http://www.w3.org/2000/svg" xml:space="preserve" width="99.4833mm" height="3.5778mm" version="1.1" style="shape-rendering:geometricPrecision; text-rendering:geometricPrecision; image-rendering:optimizeQuality; fill-rule:evenodd; clip-rule:evenodd"
viewBox="0 0 895.5 32.21"
 xmlns:xlink="http://www.w3.org/1999/xlink">
 <defs>
  <style type="text/css">
   <![CDATA[
    .fil0 {fill:#02BFDF}
    .fil1 {fill:white}
   ]]>
  </style>
 </defs>
 <g id="Слой_x0020_1">
  <metadata id="CorelCorpID_0Corel-Layer"/>
  <path class="fil0" d="M412.37 4.84c53.97,4.01 101.75,6.46 216.63,9.25 107.51,6.48 218.85,-26.15 266.5,5.63l0 12.49c-53.21,-49.52 -115.75,-1.45 -266.2,-10.75 -63.33,-2.45 -99.14,2.61 -219.46,-7.36 -44.1,-3.77 -124.55,-12.7 -209.52,1.47 -82.15,17.45 -130.03,16.14 -200.31,3.12l0 -12.77c58.22,12.24 133.6,13.38 199.42,3.08 68.35,-11.21 155.64,-8.84 212.95,-4.15z"/>
  <path class="fil1" d="M895.5 19.72c-47.65,-31.78 -159,0.85 -266.5,-5.63 -114.88,-2.79 -162.66,-5.24 -216.63,-9.25 -57.31,-4.69 -144.6,-7.06 -212.95,4.15 -65.81,10.31 -141.2,9.17 -199.42,-3.08l0 -5.91 895.49 0 0 19.72z"/>
 </g>
</svg>
