<?xml version="1.0" encoding="UTF-8"?>
<!DOCTYPE svg PUBLIC "-//W3C//DTD SVG 1.1//EN" "http://www.w3.org/Graphics/SVG/1.1/DTD/svg11.dtd">
<svg xmlns="http://www.w3.org/2000/svg" xml:space="preserve" width="99.4833mm" height="15.2708mm" version="1.1" style="shape-rendering:geometricPrecision; text-rendering:geometricPrecision; image-rendering:optimizeQuality; fill-rule:evenodd; clip-rule:evenodd"
viewBox="0 0 888.97 136.46"
 xmlns:xlink="http://www.w3.org/1999/xlink">
 <defs>
  <style type="text/css">
   <![CDATA[
    .fil0 {fill:none}
    .fil1 {fill:#02BFDF}
    .fil2 {fill:white}
   ]]>
  </style>
 </defs>
 <g id="Слой_x0020_1">
  <metadata id="CorelCorpID_0Corel-Layer"/>
  <path class="fil0" d="M888.97 8.64c-20.51,51.25 -41.79,112.77 -131.77,122.88 -110.61,12.66 -105.07,-21.64 -197.67,-40.35 -76.86,-16.2 -128.36,36.93 -208.38,39.82 -78.95,0.98 -111.95,-37.63 -145.32,-71.02 -61,-54.76 -143.75,-29.56 -205.84,8.34m0 0l0 68.14 888.97 0 0 -136.46c-21.49,36.75 -50.46,100.76 -131.77,114.78 -105.68,20.56 -103.49,-16.74 -196.09,-33.12 -76.86,-14.17 -129.47,20.31 -209.49,22.84 -78.95,0.86 -112.41,-23.11 -145.78,-52.33 -60.67,-47.66 -147.51,-24.3 -205.84,-4.67l0 20.82z"/>
  <path class="fil1" d="M351.16 130.99c80.02,-2.89 131.52,-56.02 208.38,-39.82 92.6,18.72 87.06,53.01 197.67,40.35 89.97,-10.11 111.26,-71.64 131.77,-122.88l0 -8.64c-21.49,36.75 -50.46,100.76 -131.77,114.78 -105.68,20.56 -103.49,-16.74 -196.09,-33.12 -76.86,-14.17 -129.47,20.31 -209.49,22.84 -78.95,0.86 -112.41,-23.11 -145.78,-52.33 -60.67,-47.66 -147.51,-24.3 -205.84,-4.67l0 20.82c62.09,-37.9 144.84,-63.1 205.84,-8.34 33.37,33.39 66.37,72 145.32,71.02z"/>
  <path class="fil2" d="M351.16 130.99c-78.95,0.98 -111.95,-37.63 -145.32,-71.02 -61,-54.76 -143.75,-29.56 -205.84,8.34l0 68.14 888.97 0 0 -127.82c-20.51,51.25 -41.79,112.77 -131.77,122.88 -110.61,12.66 -105.07,-21.64 -197.67,-40.35 -76.86,-16.2 -128.36,36.93 -208.38,39.82z"/>
 </g>
</svg>
