<?xml version="1.0" encoding="UTF-8"?>
<!DOCTYPE svg PUBLIC "-//W3C//DTD SVG 1.1//EN" "http://www.w3.org/Graphics/SVG/1.1/DTD/svg11.dtd">
<!-- Creator: CorelDRAW 2018 (64-Bit) -->
<svg xmlns="http://www.w3.org/2000/svg" xml:space="preserve" width="99.4833mm" height="3.5778mm" version="1.1" style="shape-rendering:geometricPrecision; text-rendering:geometricPrecision; image-rendering:optimizeQuality; fill-rule:evenodd; clip-rule:evenodd"
viewBox="0 0 895.72 32.21"
 xmlns:xlink="http://www.w3.org/1999/xlink">
 <defs>
  <style type="text/css">
   <![CDATA[
    .fil0 {fill:#02BFDF}
    .fil1 {fill:white}
   ]]>
  </style>
 </defs>
 <g id="Слой_x0020_1">
  <metadata id="CorelCorpID_0Corel-Layer"/>
  <path class="fil0" d="M483.25 27.37c-53.99,-4.01 -101.78,-6.46 -216.68,-9.25 -107.53,-6.48 -218.9,26.16 -266.57,-5.63l-0 -12.49c53.22,49.53 115.78,1.45 266.27,10.75 63.34,2.46 99.16,-2.61 219.52,7.36 44.11,3.78 124.58,12.7 209.57,-1.47 82.18,-17.45 130.07,-16.14 200.36,-3.12l-0 12.78c-58.23,-12.25 -133.64,-13.39 -199.47,-3.08 -68.36,11.21 -155.68,8.84 -213,4.15z"/>
  <path class="fil1" d="M0 12.49c47.66,31.78 159.04,-0.85 266.57,5.63 114.91,2.79 162.7,5.24 216.68,9.25 57.32,4.69 144.64,7.07 213,-4.15 65.83,-10.31 141.23,-9.17 199.47,3.08l0 5.91 -895.72 0 -0 -19.72z"/>
 </g>
</svg>
