<svg display="none" xmlns="http://www.w3.org/2000/svg">
  <symbol id="play" viewBox="0 0 1000 1000">
    <path d="M924.3,254C880.5,179,821,119.5,746,75.7C670.9,31.9,588.9,10,500,10c-88.9,0-170.9,21.9-246,65.7C179,119.5,119.5,179,75.7,254C31.9,329.1,10,411.1,10,500s21.9,170.9,65.7,246C119.5,821,179,880.5,254,924.3c75.1,43.8,157.1,65.7,246,65.7s170.9-21.9,246-65.7C821,880.5,880.5,821,924.3,746c43.8-75.1,65.7-157.1,65.7-246C990,411.1,968.1,329.1,924.3,254z M745,535.1L397.9,739.3c-6.4,3.8-13.2,5.7-20.4,5.7c-6.8,0-13.6-1.7-20.4-5.1c-13.6-8.1-20.4-20-20.4-35.7V295.8c0-15.7,6.8-27.6,20.4-35.7c14-7.7,27.6-7.4,40.8,0.6L745,464.9c13.6,7.7,20.4,19.4,20.4,35.1C765.4,515.7,758.6,527.4,745,535.1z"/>
  </symbol>
  <symbol id="stop" viewBox="0 0 1000 1000">
    <path d="M500,10C229.4,10,10,229.4,10,500s219.4,490,490,490s490-219.4,490-490S770.6,10,500,10z M500,898.1c-219.9,0-398.1-178.2-398.1-398.1S280.1,101.9,500,101.9S898.1,280.1,898.1,500S719.9,898.1,500,898.1z M316.3,316.3h367.5v367.5H316.3V316.3z"/>
  </symbol>
</svg>
