<svg display="none" xmlns="http://www.w3.org/2000/svg">
  <symbol id="timer" viewBox="0 0 66.69 81.9">
    <path d="M60.01 28.33l-3.31 -3.31 -2.73 2.73 3.31 3.31 2.73 -2.73zm4.26 -2.48l-5.09 -5.09 -2.74 2.73 5.09 5.09 2.73 -2.74zm2.42 -0.74l-6.77 -6.77 -1.03 1.03 6.77 6.77 1.03 -1.03zm-56.7 -0.08l-3.31 3.31 2.73 2.73 3.31 -3.31 -2.74 -2.73zm-2.48 -4.26l-5.09 5.09 2.73 2.74 5.09 -5.09 -2.73 -2.73zm-0.74 -2.42l-6.77 6.77 1.03 1.03 6.77 -6.77 -1.03 -1.03zm31.97 -9.81l-1.02 0 0 4.27 1.02 0 0 -4.27zm-1.63 0l-1.02 0 0 4.27 1.02 0 0 -4.27zm-1.63 0l-1.02 0 0 4.27 1.02 0 0 -4.27zm-1.63 0l-1.02 0 0 4.27 1.02 0 0 -4.27zm-1.63 0l-1.02 0 0 4.27 1.02 0 0 -4.27zm-1.63 0l-1.02 0 0 4.27 1.02 0 0 -4.27zm-1.63 0l-1.02 0 0 4.27 1.02 0 0 -4.27zm7.28 9.66l0 -4.67 -5.8 0 0 4.67c-3.34,-1.19 -5.73,-4.39 -5.73,-8.13 0,-4.76 3.87,-8.63 8.63,-8.63 4.76,0 8.63,3.87 8.63,8.63 0,3.74 -2.4,6.94 -5.73,8.13zm7.16 -8.13c0,-5.55 -4.51,-10.06 -10.06,-10.06 -5.55,0 -10.06,4.51 -10.06,10.06 0,4.54 3.02,8.38 7.16,9.63l0 0.67 5.8 0 0 -0.67c4.14,-1.25 7.16,-5.09 7.16,-9.63zm-10.06 15.48c-14.42,0 -26.15,11.73 -26.15,26.15 0,14.42 11.73,26.15 26.15,26.15 14.42,0 26.15,-11.73 26.15,-26.15 0,-14.42 -11.73,-26.15 -26.15,-26.15zm0 56.36c-16.66,0 -30.22,-13.56 -30.22,-30.22 0,-16.66 13.56,-30.22 30.22,-30.22 16.66,0 30.22,13.56 30.22,30.22 0,16.66 -13.56,30.22 -30.22,30.22z"/>
  </symbol>
</svg>
