<?xml version="1.0" encoding="UTF-8"?>
<!DOCTYPE svg PUBLIC "-//W3C//DTD SVG 1.1//EN" "http://www.w3.org/Graphics/SVG/1.1/DTD/svg11.dtd">
<!-- Creator: CorelDRAW 2018 (64-Bit) -->
<svg xmlns="http://www.w3.org/2000/svg" xml:space="preserve" width="50mm" height="30.6565mm" version="1.1" style="shape-rendering:geometricPrecision; text-rendering:geometricPrecision; image-rendering:optimizeQuality; fill-rule:evenodd; clip-rule:evenodd"
viewBox="0 0 267.73 164.16"
 xmlns:xlink="http://www.w3.org/1999/xlink">
 <defs>
  <style type="text/css">
   <![CDATA[
    .fil25 {fill:#163560;fill-rule:nonzero}
    .fil26 {fill:#1C468A;fill-rule:nonzero}
    .fil13 {fill:#233862;fill-rule:nonzero}
    .fil14 {fill:#2B478B;fill-rule:nonzero}
    .fil32 {fill:#2C3A64;fill-rule:nonzero}
    .fil11 {fill:#474FEA;fill-rule:nonzero}
    .fil16 {fill:#548EE2;fill-rule:nonzero}
    .fil18 {fill:#568CDB;fill-rule:nonzero}
    .fil3 {fill:#699DEE;fill-rule:nonzero}
    .fil28 {fill:#91B5F8;fill-rule:nonzero}
    .fil19 {fill:#A4C4F4;fill-rule:nonzero}
    .fil1 {fill:#AFCDFB;fill-rule:nonzero}
    .fil12 {fill:#B5453C;fill-rule:nonzero}
    .fil6 {fill:#B9CAF7;fill-rule:nonzero}
    .fil8 {fill:#BDD1F9;fill-rule:nonzero}
    .fil31 {fill:#C65447;fill-rule:nonzero}
    .fil23 {fill:#DD6D22;fill-rule:nonzero}
    .fil4 {fill:#DDE7FE;fill-rule:nonzero}
    .fil5 {fill:#E2EDFC;fill-rule:nonzero}
    .fil7 {fill:#E5EEFC;fill-rule:nonzero}
    .fil0 {fill:#EBF3FA;fill-rule:nonzero}
    .fil10 {fill:#ED7D2B;fill-rule:nonzero}
    .fil29 {fill:#ED975D;fill-rule:nonzero}
    .fil20 {fill:#ED985F;fill-rule:nonzero}
    .fil27 {fill:#EFDECE;fill-rule:nonzero}
    .fil30 {fill:#F2CCAA;fill-rule:nonzero}
    .fil17 {fill:#F4D2B8;fill-rule:nonzero}
    .fil2 {fill:#F7FAFD;fill-rule:nonzero}
    .fil9 {fill:#F99746;fill-rule:nonzero}
    .fil22 {fill:#F9DDBF;fill-rule:nonzero}
    .fil15 {fill:#FCECDB;fill-rule:nonzero}
    .fil21 {fill:#FFB27D;fill-rule:nonzero}
    .fil24 {fill:white;fill-rule:nonzero}
   ]]>
  </style>
 </defs>
 <g id="Слой_x0020_1">
  <metadata id="CorelCorpID_0Corel-Layer"/>
  <g id="_1968025851776">
   <path class="fil0" d="M14.97 164.16l85.38 -0.44 22.76 -0.01 7.54 -0 22.8 -0.01 104.17 -0.03c0,0 23.83,-30.55 -1.62,-59.57 -26.39,-30.09 -39.22,-5.58 -47.33,-47.93 -20.42,-106.6 -222.28,-44.56 -169.33,46.16 19.06,32.66 -37.53,15.3 -24.36,61.84z"/>
   <path class="fil1" d="M93.51 141.91l-0.46 -0.25c-0.49,-0.27 -0.67,-0.89 -0.4,-1.38l2.12 -3.87c0.27,-0.49 0.89,-0.67 1.38,-0.4l0.66 0.36c0.1,0.05 0.13,0.18 0.08,0.27 -0.05,0.1 -0.18,0.13 -0.27,0.08l-0.66 -0.36c-0.3,-0.16 -0.68,-0.05 -0.84,0.25l-2.12 3.87c-0.16,0.3 -0.05,0.68 0.25,0.84l0.46 0.25c0.3,0.16 0.68,0.05 0.84,-0.25l1.41 -2.57c0.05,-0.1 0.18,-0.13 0.27,-0.08 0.1,0.05 0.13,0.17 0.08,0.27l-1.41 2.57c-0.27,0.49 -0.89,0.67 -1.38,0.4z"/>
   <path class="fil1" d="M91.54 145.97l-0.83 -0.45c-0.77,-0.42 -1.03,-1.43 -0.58,-2.26l3.19 -5.82c0.05,-0.1 0.17,-0.13 0.27,-0.08 0.1,0.05 0.13,0.17 0.08,0.27l-3.19 5.82c-0.35,0.63 -0.16,1.4 0.42,1.71l0.83 0.45c0.58,0.32 1.32,0.06 1.67,-0.57l3.63 -6.63c0.35,-0.63 0.16,-1.4 -0.42,-1.71 -0.1,-0.05 -0.13,-0.18 -0.08,-0.27 0.05,-0.1 0.17,-0.13 0.27,-0.08 0.77,0.42 1.03,1.43 0.58,2.26l-3.63 6.63c-0.45,0.82 -1.44,1.15 -2.21,0.73z"/>
   <path class="fil2" d="M171.27 120.36l-101.58 0c-2.5,0 -4.52,-2.02 -4.52,-4.52l0 -85.26c0,-2.5 2.02,-4.52 4.52,-4.52l101.58 0c2.5,0 4.52,2.02 4.52,4.52l0 85.26c0,2.5 -2.03,4.52 -4.52,4.52zm-43.59 -45.71c-0.42,0 -0.77,0.34 -0.77,0.77 0,0.42 0.34,0.77 0.77,0.77l15.66 0c0.42,0 0.77,-0.34 0.77,-0.77 0,-0.42 -0.34,-0.77 -0.77,-0.77l-15.66 0zm-14.28 0c-0.43,0 -0.77,0.34 -0.77,0.77 0,0.42 0.34,0.77 0.77,0.77l11.43 0c0.42,0 0.77,-0.34 0.77,-0.77 0,-0.42 -0.34,-0.77 -0.77,-0.77l-11.43 0zm-39.47 -29.82l0 31.36 31.36 0 0 -31.36 -31.36 0zm73.29 25.06c-0.42,0 -0.77,0.34 -0.77,0.77 0,0.42 0.34,0.77 0.77,0.77l8 0c0.42,0 0.77,-0.34 0.77,-0.77 0,-0.42 -0.34,-0.77 -0.77,-0.77l-8 0zm-33.82 0c-0.43,0 -0.77,0.34 -0.77,0.77 0,0.42 0.34,0.77 0.77,0.77l30.3 0c0.42,0 0.77,-0.34 0.77,-0.77 0,-0.42 -0.34,-0.77 -0.77,-0.77l-30.3 0zm19.76 -6.25c-0.42,0 -0.77,0.34 -0.77,0.77 0,0.42 0.34,0.77 0.77,0.77l25.37 0c0.42,0 0.77,-0.34 0.77,-0.77 0,-0.42 -0.34,-0.77 -0.77,-0.77l-25.37 0zm-19.76 0c-0.43,0 -0.77,0.34 -0.77,0.77 0,0.42 0.34,0.77 0.77,0.77l15.51 0c0.43,0 0.77,-0.34 0.77,-0.77 0,-0.42 -0.34,-0.77 -0.77,-0.77l-15.51 0zm33.82 -4.12c-0.42,0 -0.77,0.34 -0.77,0.77 0,0.42 0.34,0.77 0.77,0.77l8 0c0.42,0 0.77,-0.34 0.77,-0.77 0,-0.42 -0.34,-0.77 -0.77,-0.77l-8 0zm-19.53 0c-0.42,0 -0.77,0.34 -0.77,0.77 0,0.42 0.34,0.77 0.77,0.77l15.66 0c0.42,0 0.77,-0.34 0.77,-0.77 0,-0.42 -0.34,-0.77 -0.77,-0.77l-15.66 0zm-14.28 0c-0.43,0 -0.77,0.34 -0.77,0.77 0,0.42 0.34,0.77 0.77,0.77l11.43 0c0.42,0 0.77,-0.34 0.77,-0.77 0,-0.42 -0.34,-0.77 -0.77,-0.77l-11.43 0zm33.82 -4.76c-0.42,0 -0.77,0.34 -0.77,0.77 0,0.42 0.34,0.77 0.77,0.77l8 0c0.42,0 0.77,-0.34 0.77,-0.77 0,-0.42 -0.34,-0.77 -0.77,-0.77l-8 0zm-33.82 0c-0.43,0 -0.77,0.34 -0.77,0.77 0,0.42 0.34,0.77 0.77,0.77l30.3 0c0.42,0 0.77,-0.34 0.77,-0.77 0,-0.42 -0.34,-0.77 -0.77,-0.77l-30.3 0zm0.42 -9.96c-0.65,0 -1.19,0.53 -1.19,1.18 0,0.65 0.53,1.19 1.19,1.19l24.94 0c0.65,0 1.18,-0.53 1.18,-1.19 0,-0.65 -0.53,-1.18 -1.18,-1.18l-24.94 0zm29.83 -1.59c-0.65,0 -1.18,0.53 -1.18,1.18 0,0.65 0.53,1.18 1.18,1.18l24.94 0c0.65,0 1.19,-0.53 1.19,-1.18 0,-0.65 -0.53,-1.18 -1.19,-1.18l-24.94 0z"/>
   <path class="fil3" d="M175.79 36.52l-110.63 0 0 -7.09c0,-1.86 1.51,-3.38 3.38,-3.38l103.88 0c1.86,0 3.38,1.51 3.38,3.38l0 7.09z"/>
   <path class="fil4" d="M69.63 31.23c0,-0.69 0.56,-1.25 1.25,-1.25 0.69,0 1.25,0.56 1.25,1.25 0,0.69 -0.56,1.25 -1.25,1.25 -0.69,0 -1.25,-0.56 -1.25,-1.25z"/>
   <path class="fil4" d="M74.89 31.23c0,-0.69 0.56,-1.25 1.25,-1.25 0.69,0 1.25,0.56 1.25,1.25 0,0.69 -0.56,1.25 -1.25,1.25 -0.69,0 -1.25,-0.56 -1.25,-1.25z"/>
   <path class="fil4" d="M80.14 31.23c0,-0.69 0.56,-1.25 1.25,-1.25 0.69,0 1.25,0.56 1.25,1.25 0,0.69 -0.56,1.25 -1.25,1.25 -0.69,0 -1.25,-0.56 -1.25,-1.25z"/>
   <polygon class="fil5" points="73.93,76.19 105.29,76.19 105.29,44.83 73.93,44.83 "/>
   <path class="fil6" d="M138.76 47.17l-24.94 0c-0.65,0 -1.19,-0.53 -1.19,-1.19 0,-0.65 0.53,-1.18 1.19,-1.18l24.94 0c0.65,0 1.18,0.53 1.18,1.18 0,0.65 -0.53,1.19 -1.18,1.19z"/>
   <path class="fil6" d="M168.59 45.58l-24.94 0c-0.65,0 -1.18,-0.53 -1.18,-1.18 0,-0.65 0.53,-1.18 1.18,-1.18l24.94 0c0.65,0 1.19,0.53 1.19,1.18 0,0.65 -0.53,1.18 -1.19,1.18z"/>
   <path class="fil7" d="M143.7 56.29l-30.3 0c-0.43,0 -0.77,-0.34 -0.77,-0.77 0,-0.42 0.34,-0.77 0.77,-0.77l30.3 0c0.42,0 0.77,0.34 0.77,0.77 0,0.42 -0.34,0.77 -0.77,0.77z"/>
   <path class="fil7" d="M155.21 56.29l-8 0c-0.42,0 -0.77,-0.34 -0.77,-0.77 0,-0.42 0.34,-0.77 0.77,-0.77l8 0c0.42,0 0.77,0.34 0.77,0.77 0,0.42 -0.34,0.77 -0.77,0.77z"/>
   <path class="fil7" d="M124.83 61.05l-11.43 0c-0.43,0 -0.77,-0.34 -0.77,-0.77 0,-0.42 0.34,-0.77 0.77,-0.77l11.43 0c0.42,0 0.77,0.34 0.77,0.77 0,0.42 -0.34,0.77 -0.77,0.77z"/>
   <path class="fil7" d="M143.35 61.05l-15.66 0c-0.42,0 -0.77,-0.34 -0.77,-0.77 0,-0.42 0.34,-0.77 0.77,-0.77l15.66 0c0.42,0 0.77,0.34 0.77,0.77 0,0.42 -0.34,0.77 -0.77,0.77z"/>
   <path class="fil7" d="M155.21 61.05l-8 0c-0.42,0 -0.77,-0.34 -0.77,-0.77 0,-0.42 0.34,-0.77 0.77,-0.77l8 0c0.42,0 0.77,0.34 0.77,0.77 0,0.42 -0.34,0.77 -0.77,0.77z"/>
   <path class="fil7" d="M128.91 65.17l-15.51 0c-0.43,0 -0.77,-0.34 -0.77,-0.77 0,-0.42 0.34,-0.77 0.77,-0.77l15.51 0c0.43,0 0.77,0.34 0.77,0.77 0,0.42 -0.34,0.77 -0.77,0.77z"/>
   <path class="fil7" d="M158.53 65.17l-25.37 0c-0.42,0 -0.77,-0.34 -0.77,-0.77 0,-0.42 0.34,-0.77 0.77,-0.77l25.37 0c0.42,0 0.77,0.34 0.77,0.77 0,0.42 -0.34,0.77 -0.77,0.77z"/>
   <path class="fil7" d="M143.7 71.42l-30.3 0c-0.43,0 -0.77,-0.34 -0.77,-0.77 0,-0.42 0.34,-0.77 0.77,-0.77l30.3 0c0.42,0 0.77,0.34 0.77,0.77 0,0.42 -0.34,0.77 -0.77,0.77z"/>
   <path class="fil7" d="M155.21 71.42l-8 0c-0.42,0 -0.77,-0.34 -0.77,-0.77 0,-0.42 0.34,-0.77 0.77,-0.77l8 0c0.42,0 0.77,0.34 0.77,0.77 0,0.42 -0.34,0.77 -0.77,0.77z"/>
   <path class="fil7" d="M124.83 76.19l-11.43 0c-0.43,0 -0.77,-0.34 -0.77,-0.77 0,-0.42 0.34,-0.77 0.77,-0.77l11.43 0c0.42,0 0.77,0.34 0.77,0.77 0,0.42 -0.34,0.77 -0.77,0.77z"/>
   <path class="fil7" d="M143.35 76.19l-15.66 0c-0.42,0 -0.77,-0.34 -0.77,-0.77 0,-0.42 0.34,-0.77 0.77,-0.77l15.66 0c0.42,0 0.77,0.34 0.77,0.77 0,0.42 -0.34,0.77 -0.77,0.77z"/>
   <path class="fil8" d="M92.99 61.63l-3.44 -7.95 -3.41 7.95 6.85 0zm-5 -12.13l3.24 0 8.75 20.03 -3.69 0 -2.02 -4.8 -9.4 0 -2.04 4.8 -3.58 0 8.75 -20.03z"/>
   <polygon class="fil9" points="73.93,85.89 91.45,85.89 91.45,82.5 73.93,82.5 "/>
   <polygon class="fil10" points="73.93,89.27 91.45,89.27 91.45,85.89 73.93,85.89 "/>
   <polygon class="fil11" points="73.93,92.65 91.45,92.65 91.45,89.27 73.93,89.27 "/>
   <path class="fil8" d="M104.35 84.42l-9.64 0c-0.4,0 -0.73,-0.33 -0.73,-0.73 0,-0.4 0.33,-0.73 0.73,-0.73l9.64 0c0.4,0 0.73,0.33 0.73,0.73 0,0.4 -0.33,0.73 -0.73,0.73z"/>
   <path class="fil8" d="M101.11 86.99l-6.39 0c-0.4,0 -0.73,-0.33 -0.73,-0.73 0,-0.4 0.33,-0.73 0.73,-0.73l6.39 0c0.4,0 0.73,0.33 0.73,0.73 0,0.4 -0.33,0.73 -0.73,0.73z"/>
   <polygon class="fil9" points="73.93,106.9 91.45,106.9 91.45,99.99 73.93,99.99 "/>
   <polygon class="fil12" points="73.93,110.13 91.45,110.13 91.45,105.19 73.93,105.19 "/>
   <polygon class="fil11" points="73.93,99.99 80.21,105.27 73.93,110.13 "/>
   <path class="fil8" d="M104.35 101.9l-9.64 0c-0.4,0 -0.73,-0.33 -0.73,-0.73 0,-0.4 0.33,-0.73 0.73,-0.73l9.64 0c0.4,0 0.73,0.33 0.73,0.73 0,0.4 -0.33,0.73 -0.73,0.73z"/>
   <path class="fil8" d="M101.11 104.48l-6.39 0c-0.4,0 -0.73,-0.33 -0.73,-0.73 0,-0.4 0.33,-0.73 0.73,-0.73l6.39 0c0.4,0 0.73,0.33 0.73,0.73 0,0.4 -0.33,0.73 -0.73,0.73z"/>
   <path class="fil13" d="M176.91 34.6c0,0 0.46,5.44 -0.78,5.36 -1.24,-0.08 -3.69,-2.48 -8.62,-2.09 -4.94,0.39 -10.98,1.47 -14.63,-4.99 -3.65,-6.46 4.67,-8.32 4.67,-8.32l19.36 10.04z"/>
   <polygon class="fil14" points="166.41,34.2 191.28,36.25 191.8,35.14 167.96,17.54 143.87,14.73 143.41,15.72 "/>
   <path class="fil9" d="M183.34 52.93c-0.15,-0.51 -0.68,-0.81 -1.19,-0.66 -0.51,0.15 -0.81,0.68 -0.66,1.19 0.15,0.51 0.68,0.81 1.19,0.66 0.51,-0.15 0.81,-0.68 0.66,-1.19z"/>
   <path class="fil9" d="M182.51 53.2c1,-0.08 1.23,9 1.23,9 0,0 -0.65,0.31 -0.97,0.23 -0.32,-0.07 -0.48,-1.3 -0.48,-1.3l-0.03 1.29c0,0 -1.1,0.04 -1.47,-0.23 0,0 0.15,-8.87 1.73,-8.99z"/>
   <polygon class="fil9" points="182.83,53.41 182.65,33.57 182.53,33.48 169.54,23.87 169.07,24.5 181.93,34.01 182.22,53.37 "/>
   <path class="fil15" d="M199.6 146.97l-54.64 0 0 -20.76 54.82 0c4.43,0 8.02,3.59 8.02,8.02l0 4.53c0,4.53 -3.67,8.2 -8.21,8.2z"/>
   <path class="fil3" d="M254.67 134.75l0 3.12c0,1.67 -0.42,3.23 -1.15,4.58 -1.47,2.7 -4.21,4.52 -7.35,4.52l-102.9 0c-0.68,0 -1.23,-0.59 -1.23,-1.32l0 -0.47c0,-0.73 0.55,-1.32 1.23,-1.32l62.73 0c0.34,-0.44 0.63,-0.91 0.88,-1.42 0.59,-1.18 0.92,-2.53 0.92,-3.97l0 -3.97c0,-0.73 -0.09,-1.44 -0.25,-2.11 -0.28,-1.14 -0.78,-2.19 -1.45,-3.08l-62.82 0c-0.68,0 -1.23,-0.59 -1.23,-1.32l0 -0.47c0,-0.73 0.55,-1.32 1.23,-1.32l103.42 0c3.64,0 6.72,2.61 7.67,6.19 0.2,0.75 0.31,1.54 0.31,2.35z"/>
   <path class="fil16" d="M254.37 132.39l-46.82 0c-0.28,-1.14 -0.78,-2.19 -1.45,-3.08l-62.82 0c-0.68,0 -1.23,-0.59 -1.23,-1.32l0 -0.47c0,-0.73 0.55,-1.32 1.23,-1.32l103.42 0c3.64,0 6.72,2.61 7.67,6.19z"/>
   <polygon class="fil17" points="144.96,136.59 152.58,136.94 144.96,137.14 "/>
   <polygon class="fil17" points="144.96,139.84 163.08,140.19 144.96,140.4 "/>
   <path class="fil9" d="M136.97 163.07l53.64 0 0 -16.15 -54.11 0c-4.02,0 -7.28,3.26 -7.28,7.28l0 1.12c0,4.28 3.47,7.75 7.75,7.75z"/>
   <path class="fil15" d="M188.03 163.07l61.13 0 0 -16.15 -61.3 0c-4.09,0 -7.4,3.31 -7.4,7.4l0 1.18c0,4.18 3.39,7.57 7.57,7.57z"/>
   <path class="fil9" d="M176.42 163.07l74.8 0c0.62,0 1.12,-0.5 1.12,-1.12l0 -0.17c0,-0.62 -0.5,-1.12 -1.12,-1.12l-74.8 0c-0.62,0 -1.12,0.5 -1.12,1.12l0 0.17c0,0.62 0.5,1.12 1.12,1.12z"/>
   <path class="fil9" d="M176.42 149.34l74.8 0c0.62,0 1.12,-0.5 1.12,-1.12l0 -0.17c0,-0.62 -0.5,-1.12 -1.12,-1.12l-74.8 0c-0.62,0 -1.12,0.5 -1.12,1.12l0 0.17c0,0.62 0.5,1.12 1.12,1.12z"/>
   <polygon class="fil17" points="249.16,155 240.83,155.27 249.16,155.43 "/>
   <polygon class="fil17" points="249.16,151.28 229.34,151.55 249.16,151.72 "/>
   <path class="fil3" d="M229.55 151.5c0,0 0.85,0.69 1.13,1.83 0.05,0.2 0.08,0.41 0.09,0.64 0.05,1.51 0,4.94 0,4.94l2.51 -1.72 2.5 1.72 0 -4.65c0,-0.88 -0.21,-1.73 -0.61,-2.29 -0.19,-0.27 -0.43,-0.48 -0.69,-0.48l-4.92 0z"/>
   <path class="fil18" d="M229.55 151.5c0,0 0.85,0.69 1.13,1.83l5.02 0.07c0,0 -0.2,-1.63 -1.23,-1.9l-4.92 0z"/>
   <path class="fil15" d="M183.96 126.25l-52.79 0 0 -23.72 52.98 0c4.68,0 8.48,3.8 8.48,8.48l0 6.57c0,4.79 -3.88,8.67 -8.67,8.67z"/>
   <path class="fil1" d="M192.67 111.73l0 5.11c-0.01,2.18 -1.02,4.07 -2.51,5.08 -0.73,0.5 -1.58,0.78 -2.47,0.78l-58.13 0c-0.68,0 -1.23,0.66 -1.23,1.47l0 0.6c0,0.81 0.55,1.47 1.23,1.47l100.42 0c2.88,0 5.43,-1.71 6.97,-4.33 0.97,-1.65 1.54,-3.66 1.54,-5.83l0 -4.03c0,-1.49 -0.28,-2.89 -0.79,-4.15 -1.29,-3.19 -4.03,-5.39 -7.19,-5.39l-100.94 0c-0.68,0 -1.23,0.66 -1.23,1.47l0 0.6c0,0.81 0.55,1.47 1.23,1.47l58.31 0c1.39,0 2.65,0.71 3.54,1.84 0.78,1.01 1.26,2.34 1.27,3.82z"/>
   <path class="fil19" d="M128.32 124.17l0 0.6c0,0.81 0.55,1.47 1.23,1.47l100.42 0c2.88,0 5.43,-1.71 6.97,-4.33l-46.78 0c-0.73,0.5 -1.58,0.78 -2.47,0.78l-58.13 0c-0.68,0 -1.23,0.66 -1.23,1.47z"/>
   <polygon class="fil17" points="131.17,114.39 138.62,114.79 131.17,115.03 "/>
   <polygon class="fil17" points="131.17,108.93 148.9,109.33 131.17,109.57 "/>
   <path class="fil9" d="M148.72 109.25c0,0 -1.17,0.75 -1.56,1.99 -0.07,0.22 -0.11,0.45 -0.12,0.69 -0.06,1.64 0,5.36 0,5.36l-3.45 -1.86 -3.45 1.86 0 -5.04c0,-0.95 0.3,-1.88 0.84,-2.49 0.27,-0.29 0.59,-0.52 0.96,-0.52l6.78 0z"/>
   <path class="fil10" d="M148.72 109.25c0,0 -1.17,0.75 -1.56,1.99l-6.92 0.07c0,0 0.27,-1.77 1.7,-2.06l6.78 0z"/>
   <path class="fil20" d="M60.47 124.15c0,0 10.82,4.72 12.79,4.63 1.96,-0.09 14.07,-3.69 14.07,-3.69l-0.31 2.08c0,0 -9.34,5.37 -12.61,5.68 -3.22,0.3 -14.21,-2.89 -15.27,-3.56 -1.06,-0.67 -1.75,-4.46 1.33,-5.14z"/>
   <path class="fil13" d="M58.85 106.81c0,0 -3.99,-0.76 -5.98,0.69 -3.6,2.63 -3.79,11.7 -5.14,13.05 -1.35,1.35 -4.6,0.77 -4.89,7.76 -0.29,6.99 1.3,7.57 -0.59,10.69 -1.89,3.12 0.8,6.24 0.8,6.24 0,0 -1.1,-1.72 -0.63,-2.96 0,0 0.46,2.74 2.2,3.39 1.74,0.64 2,1.11 2.28,2.06 0,0 14.87,-7.62 14.89,-13.02 0.02,-5.4 2.93,-10.76 1.5,-13.1 0,0 0.64,1 0.71,2.12 0,0 0.86,-1.64 -0.63,-3.17 -1.49,-1.53 1.74,-4.69 1.26,-8.36 -0.33,-2.52 -2.09,-5.27 -5.77,-5.38z"/>
   <path class="fil21" d="M61.79 129.3c-0.95,0.66 -2.14,1.2 -3.64,1.55 -5.61,1.3 -7.76,-3.44 -8.56,-6.7 0.76,-0.44 1.48,-0.53 1.9,-0.58 0.41,-0.05 0.83,-0.08 1.18,-0.1 0.63,-0.48 1.57,-2.46 1.78,-5.52l0.26 0.07 4.42 1.21c0,0 -0.2,1.4 -0.3,2.73 -0.08,1.04 -0.09,2.03 0.11,2.28 0.34,0.07 0.55,0.12 0.55,0.12l0 0c0.06,0.1 1.34,2.21 2.3,4.93z"/>
   <path class="fil20" d="M59.13 119.23c0,0 -0.2,1.4 -0.3,2.73 -2.5,-0.25 -3.67,-2.63 -4.12,-3.94l4.42 1.21z"/>
   <path class="fil21" d="M59.88 120.55c0,0 -5.94,-0.33 -5.68,-4.03 0.26,-3.7 -0.33,-6.23 3.48,-6.18 3.81,0.05 4.44,1.52 4.66,2.77 0.21,1.26 -0.9,7.42 -2.45,7.43z"/>
   <path class="fil13" d="M62.3 111.05c-0.84,-1.18 -1.55,-0.98 -1.96,-0.68 -3.12,-2.02 -5.4,0.47 -5.4,0.47 -0.59,2.62 -2.61,4.01 -2.61,4.01 0,0 1.03,0.74 3.57,0.28 0.78,-0.14 1.5,-0.63 2.12,-1.25 -1.13,1.62 -2.59,2.74 -2.59,2.74 3.08,-1.16 4.57,-5.22 4.72,-5.65 0.34,0.35 1,1.11 1.17,1.82 0.23,0.96 1.21,2.47 1.78,2.44 0,0 0.44,-2.42 -0.81,-4.18z"/>
   <path class="fil22" d="M47.89 141.38c-0.54,-2.74 -2.29,-13.7 -0.54,-17.23 0.63,-1.27 3.09,-1.38 5.8,-1.27 0.84,0.54 4.05,2.6 5.37,2.34 0.01,-0 0.04,-0.01 0.07,-0.02 0.62,-0.16 0.86,-0.59 0.34,-0.97 -0,-0 1.34,-0.13 3,0.18 0.94,0.18 3.48,1.49 3.48,1.49 0,0 -1.28,2.31 -3.16,3.1 0.32,2.86 -0.16,4.13 -3.13,10.74 -2.51,5.59 0.34,10.62 0.34,10.62 0,0 -14.78,11.88 -14.86,5.83 -0.06,-4.55 3.97,-11.32 3.29,-14.83z"/>
   <path class="fil23" d="M60.2 163.3c0.8,-0.09 1.53,-0.53 1.98,-1.2 0.07,-0.11 0.15,-0.22 0.23,-0.34 1.68,-2.55 2.34,-10.35 6.12,-18.65 0.92,-2.02 4.23,-2.39 5.13,-4.67 0,0 2.22,-7.41 -4.25,-7.63 -6.47,-0.22 -17.33,20.62 -17.5,22.81 -0.17,2.12 -4.28,11.11 8.29,9.7z"/>
   <path class="fil13" d="M85.91 163.13l-9.21 0c0,0 -0.34,-1.47 0.26,-2.47 0.53,-0.88 0.33,-1.39 -0.07,-2.12 0.42,0.17 0.96,0.33 1.55,0.29 0.46,-0.03 0.94,-0.23 1.37,-0.48 0.4,0.45 2.09,2.38 2.62,2.76 0.6,0.43 3.29,0.28 3.47,2.02z"/>
   <path class="fil10" d="M73.87 132.94c0.55,4.16 2.72,17.28 6.54,23.68 1.23,2.06 -3.1,3.22 -3.13,3.21 -0.58,-0.15 -1.55,-1.08 -2,-1.48 -3.1,-2.79 -9.4,-10.71 -9.4,-17.05 0,-3.09 -0.05,-9 2.2,-10.5 1.39,-0.92 5.56,0.49 5.78,2.14z"/>
   <path class="fil9" d="M54.71 163.13c0,0 0.34,-0.47 0.94,-1.38 0.71,-1.07 1.49,-3.18 2.44,-5.89 1,-2.84 2.18,-6.34 3.66,-9.97 0.46,-1.12 0.94,-2.26 1.46,-3.39 0.92,-2.02 3.46,-1.74 4.36,-4.03 0,0 3.52,-7.93 -2.95,-8.14 -6.47,-0.22 -18.76,21.2 -19.47,23.28 -0.77,2.27 -4.55,11.7 9.56,9.53z"/>
   <path class="fil14" d="M79.16 163.13l-9.21 0c0,0 -0.34,-1.47 0.26,-2.47 0.53,-0.88 0.33,-1.39 -0.07,-2.12 0.42,0.17 0.96,0.33 1.55,0.29 0.46,-0.03 0.94,-0.23 1.37,-0.48 0.4,0.45 2.09,2.38 2.62,2.76 0.6,0.43 3.28,0.28 3.47,2.02z"/>
   <path class="fil10" d="M58.09 155.86c1,-2.84 2.18,-6.34 3.66,-9.97 -0.39,-2.75 -1.22,-5.17 -2.62,-6.14 0,0 -3.4,10.54 -1.04,16.11z"/>
   <path class="fil9" d="M68.49 132.64c0.55,4.16 1.34,17.57 5.15,23.97 1.23,2.06 -3.1,3.22 -3.13,3.21 -0.58,-0.15 -1.55,-1.08 -2,-1.48 -3.1,-2.79 -9.4,-10.71 -9.4,-17.05 0,-3.09 3.63,-8.75 5.88,-10.26 1.39,-0.92 3.26,-0.05 3.48,1.6z"/>
   <path class="fil24" d="M60.99 118.42c0,0 -0.56,-0.22 -2.14,-0.09 0,0 0.08,0.62 1.25,0.68 0.66,0.03 0.89,-0.58 0.89,-0.58z"/>
   <polygon class="fil25" points="88.48,120.74 86.57,117.29 82.44,128.82 84.88,131.43 "/>
   <polygon class="fil26" points="78.51,122.75 74.67,133.72 84.88,131.43 88.48,120.74 "/>
   <polygon class="fil27" points="74.88,133.17 74.7,132.86 78.33,122.48 78.51,122.75 "/>
   <polygon class="fil15" points="78.33,122.48 88.01,120.59 88.48,120.74 78.51,122.75 "/>
   <polygon class="fil27" points="88.48,120.74 86.42,117.46 85.1,121.16 88.01,120.59 "/>
   <path class="fil21" d="M81.46 124.34c-0.33,-0.06 -1.04,-0.33 -1.76,-0.53 0.22,-0.17 0.45,-0.37 0.52,-0.58 0.13,-0.41 0.21,-0.54 -0.21,-0.41 -0.43,0.13 -1.93,0.82 -1.93,0.82l0 0c-0.85,0.25 -1.64,1.45 -1.64,1.45 0,0 -10.55,3.71 -11.82,3.77 -1.96,0.1 -15.03,-4.72 -15.03,-4.72 -3.08,0.68 -2.39,4.47 -1.33,5.14 1.06,0.67 10.47,4.09 16.04,4.16 2.82,0.03 13.09,-6.57 13.09,-6.57 0,0 1.2,-0.55 2.14,-0.38 0.94,0.17 3.13,0 3.6,-0.77 0.47,-0.77 -1.11,-1.29 -1.67,-1.39z"/>
   <path class="fil22" d="M56.32 126.52c0,0 -1.17,3.7 -5.18,4.54 0,0 -6.63,-2.04 -3.33,-6.56 0,0 3.26,-2.43 8.51,2.02z"/>
   <path class="fil21" d="M88.31 124.62l-0 0c0,-0.1 -0.01,-0.2 -0.03,-0.3 0,0 -0.95,-1.5 -1.26,-1.56 -0.94,-0.19 -0.94,1.06 -0.74,1.86 0.14,0.56 0.49,1.09 0.78,1.38l0 0 -0.04 1.17c1.59,-0.88 1.29,-2.55 1.29,-2.55z"/>
   <path class="fil0" d="M32.92 105.09c0.38,-9.33 -7.44,-13.47 -15.43,-13.47 -7.99,0 -16.69,2.07 -17.45,14.47 -0.49,7.98 3.77,12.89 16.02,12.89 4.13,0 7.34,-0.65 9.8,-1.81l6.12 5.44 -3.01 -7.52c2.67,-2.48 3.79,-5.97 3.95,-10z"/>
   <polygon class="fil28" points="11.41,101.97 11.41,104.15 12.84,104.15 12.84,101.97 13.42,101.97 13.42,107.05 12.84,107.05 12.84,104.68 11.41,104.68 11.41,107.05 10.83,107.05 10.83,101.97 "/>
   <path class="fil28" d="M15.8 104.85c0.01,-0.72 -0.26,-1.05 -0.54,-1.05 -0.38,0 -0.57,0.55 -0.6,1.05l1.14 0zm-1.15 0.43c0,1.12 0.44,1.36 0.86,1.36 0.26,0 0.46,-0.06 0.6,-0.14l0.1 0.42c-0.2,0.11 -0.51,0.17 -0.81,0.17 -0.87,0 -1.33,-0.72 -1.33,-1.83 0,-1.18 0.5,-1.92 1.24,-1.92 0.74,0 1.04,0.78 1.04,1.6 0,0.14 -0.01,0.24 -0.01,0.33l-1.69 0z"/>
   <polygon class="fil28" points="16.98,107.05 17.56,107.05 17.56,101.83 16.98,101.83 "/>
   <polygon class="fil28" points="18.42,107.05 19,107.05 19,101.83 18.42,101.83 "/>
   <path class="fil28" d="M20.29 105.23c0,0.6 0.11,1.42 0.63,1.42 0.5,0 0.6,-0.85 0.6,-1.42 0,-0.56 -0.11,-1.42 -0.62,-1.42 -0.52,0 -0.62,0.86 -0.62,1.42zm1.82 0c0,1.41 -0.65,1.89 -1.21,1.89 -0.66,0 -1.18,-0.6 -1.18,-1.88 0,-1.33 0.6,-1.89 1.22,-1.89 0.66,0 1.18,0.61 1.18,1.88z"/>
   <path class="fil28" d="M193.04 77.1c0.34,-8.53 -6.8,-12.32 -14.11,-12.32 -7.31,0 -15.26,1.89 -15.95,13.23 -0.44,7.3 3.45,11.78 14.64,11.78 3.78,0 6.71,-0.6 8.96,-1.66l5.6 4.97 -2.75 -6.87c2.44,-2.27 3.46,-5.46 3.61,-9.14z"/>
   <path class="fil24" d="M170.95 79.46c0.06,0.01 0.14,0.03 0.25,0.03 0.5,0 0.84,-0.3 0.84,-0.86 0,-0.59 -0.41,-0.87 -0.87,-0.88l-0.22 0 0 1.71zm0 -2.09l0.22 0c0.4,0 0.75,-0.31 0.75,-0.76 0,-0.4 -0.18,-0.7 -0.71,-0.7 -0.11,0 -0.2,0.01 -0.26,0.03l0 1.43zm-0.49 -1.76c0.21,-0.05 0.44,-0.08 0.71,-0.08 0.39,0 0.72,0.08 0.95,0.3 0.19,0.17 0.28,0.43 0.28,0.73 0,0.44 -0.24,0.78 -0.66,0.95l0 0.02c0.5,0.13 0.8,0.54 0.8,1.1 0,0.36 -0.12,0.64 -0.31,0.86 -0.24,0.27 -0.64,0.39 -1.14,0.39 -0.31,0 -0.5,-0.02 -0.64,-0.04l0 -4.22z"/>
   <path class="fil24" d="M173.48 78.31c0,0.51 0.09,1.21 0.54,1.21 0.42,0 0.51,-0.72 0.51,-1.21 0,-0.47 -0.09,-1.2 -0.52,-1.2 -0.44,0 -0.52,0.73 -0.52,1.2zm1.54 0c0,1.19 -0.55,1.59 -1.03,1.59 -0.56,0 -1,-0.5 -1,-1.59 0,-1.12 0.5,-1.59 1.03,-1.59 0.56,0 1,0.52 1,1.59z"/>
   <path class="fil24" d="M175.57 77.56c0,-0.36 -0.02,-0.55 -0.03,-0.8l0.43 0 0.03 0.38 0.01 0c0.13,-0.25 0.38,-0.42 0.71,-0.42 0.43,0 0.75,0.31 0.75,1.06l0 2.07 -0.49 0 0 -1.98c0,-0.37 -0.07,-0.73 -0.43,-0.73 -0.2,0 -0.4,0.17 -0.46,0.5 -0.02,0.08 -0.03,0.17 -0.03,0.28l0 1.94 -0.49 0 0 -2.29z"/>
   <path class="fil24" d="M178.73 75.97c0,0.19 -0.12,0.32 -0.29,0.32 -0.17,0 -0.29,-0.13 -0.29,-0.32 0,-0.19 0.13,-0.32 0.29,-0.32 0.17,0 0.29,0.13 0.29,0.32zm-1.1 4.77c0.14,-0.04 0.31,-0.09 0.41,-0.24 0.11,-0.17 0.15,-0.4 0.15,-0.98l0 -2.75 0.49 0 0 2.89c0,0.65 -0.1,0.95 -0.31,1.18 -0.18,0.19 -0.48,0.29 -0.68,0.29l-0.06 -0.39z"/>
   <path class="fil24" d="M179.71 78.31c0,0.51 0.09,1.21 0.54,1.21 0.42,0 0.51,-0.72 0.51,-1.21 0,-0.47 -0.09,-1.2 -0.52,-1.2 -0.44,0 -0.52,0.73 -0.52,1.2zm1.54 0c0,1.19 -0.55,1.59 -1.03,1.59 -0.56,0 -1,-0.5 -1,-1.59 0,-1.12 0.5,-1.59 1.03,-1.59 0.56,0 1,0.52 1,1.59z"/>
   <path class="fil24" d="M183.64 79.01c0,0.34 0.02,0.61 0.03,0.84l-0.43 0 -0.04 -0.33 -0.01 0c-0.09,0.15 -0.33,0.38 -0.66,0.38 -0.54,0 -0.75,-0.42 -0.75,-1.19l0 -1.95 0.49 0 0 1.88c0,0.48 0.08,0.84 0.41,0.84 0.29,0 0.41,-0.27 0.44,-0.41 0.02,-0.08 0.03,-0.18 0.03,-0.28l0 -2.03 0.49 0 0 2.25z"/>
   <path class="fil24" d="M184.33 77.56c0,-0.26 -0.02,-0.57 -0.03,-0.8l0.44 0 0.03 0.49 0.01 0c0.1,-0.29 0.36,-0.54 0.65,-0.54 0.04,0 0.07,0 0.1,0.01l0 0.5c-0.03,0 -0.06,0 -0.1,0 -0.31,0 -0.54,0.29 -0.59,0.64 -0.01,0.08 -0.02,0.18 -0.02,0.28l0 1.71 -0.49 0 0 -2.29z"/>
   <path class="fil13" d="M190.77 122.09c1.73,3.07 3.93,4.26 3.93,4.26l9.19 0.06c0,0 -14.45,-6.67 -13.12,-4.33z"/>
   <path class="fil21" d="M197.65 145.78c0.24,0.28 0.27,0.58 0.14,0.91l-0 0c-0.22,0.6 -0.95,1.28 -1.8,1.94 -0.11,0.09 -0.2,0.16 -0.29,0.24 -0.02,0.02 -0.05,0.04 -0.07,0.06 -0.02,0.01 -0.03,0.03 -0.05,0.04 -0.79,0.72 -0.49,0.89 -1.91,2.34 -1.62,1.66 -2.72,1.68 -3.04,1.53 -0.26,-0.13 0.28,-1.01 0.89,-2.01 0.03,-0.05 0.06,-0.1 0.09,-0.15 0.08,-0.13 0.16,-0.27 0.24,-0.4 0.71,-1.19 0.54,-1.76 0.38,-3.54 -0.12,-1.45 -2.2,-8.12 -2.2,-8.12l3.08 -0.51c0,0 0.89,5.3 1.9,6.13 0.54,0.44 1.16,0.45 1.68,0.77 0.03,0.02 0.07,0.05 0.11,0.07 0.3,0.2 0.6,0.41 0.84,0.68z"/>
   <path class="fil13" d="M197.65 145.78c0.24,0.28 0.27,0.58 0.14,0.91l-0 0c-0.27,0.6 -0.98,1.27 -1.8,1.94 -0.11,0.09 -0.2,0.17 -0.28,0.24 -0.02,0.02 -0.05,0.04 -0.07,0.06 -0.02,0.01 -0.03,0.03 -0.05,0.04 -0.79,0.72 -0.49,0.89 -1.91,2.34 -1.62,1.66 -2.72,1.68 -3.04,1.53 -0.26,-0.13 0.28,-1.01 0.89,-2.01 0.31,-0.11 1.77,-0.69 2.88,-2.09 0.97,-1.23 1.63,-2.81 2.3,-3.72 0.03,0.02 0.07,0.05 0.11,0.07 0.3,0.2 0.6,0.41 0.84,0.68z"/>
   <path class="fil21" d="M172.85 143.68c-0.2,0.95 -1.55,0.78 -3.06,0.4 -1.51,-0.38 -1.15,0.06 -3.31,-0.19 -2.15,-0.25 -2.8,-1.06 -2.86,-1.38 -0.06,-0.28 1.01,-0.38 2.15,-0.5 0.14,-0.01 0.29,-0.03 0.43,-0.05 1.29,-0.15 2.24,-0.98 3.41,-1.65 1.11,-0.64 2.79,-3.26 2.79,-3.26l2.95 0.25c0,0 -1.57,2.34 -2.17,3.36 -0.36,0.6 -0.34,1.4 -0.3,2.01 0.02,0.33 0.04,0.68 -0.03,1.01z"/>
   <path class="fil13" d="M169.79 144.08c-1.51,-0.38 -1.15,0.06 -3.31,-0.19 -2.15,-0.25 -2.8,-1.06 -2.86,-1.38 -0.06,-0.28 1.01,-0.38 2.15,-0.5l0.01 0.02c0,0 1.28,0.92 3.08,0.98 1.46,0.05 3.01,-0.36 4.02,-0.34 0.02,0.33 0.04,0.68 -0.03,1.01 -0.2,0.95 -1.55,0.78 -3.06,0.4z"/>
   <path class="fil13" d="M184.3 124.88l2.71 7.45 3.54 9.73c0,0 0.98,0.1 1.92,-0.16 0.86,-0.24 1.86,-0.89 1.86,-0.89 0,0 -0.93,-10.42 -2.75,-16.42 -0.47,-1.54 -0.99,-2.78 -1.58,-3.49 -2.87,-3.44 -5.69,3.78 -5.69,3.78z"/>
   <path class="fil14" d="M187.19 113.1c1.81,-0.57 6.97,0.21 12.14,1.27l1.1 -1.78 11.2 -0.8c0,0 3.64,8.22 1.58,13.42 -0.31,0.77 -1.04,1.08 -2.05,1.09l-0 0c0,0 -6.68,0.12 -8.84,0.1 -5.57,-0.04 -11.75,-3.91 -12.56,-4.08 -1.31,-0.27 -1.86,2.36 -3.19,5.11 -1.33,2.75 -12.45,12.15 -12.45,12.15 0,0 -1.7,0.01 -2.4,-0.26 -0.75,-0.29 -1.03,-0.66 -1.03,-0.66 0,0 12.42,-24.28 16.51,-25.57z"/>
   <path class="fil13" d="M200.6 97.17c3.97,2.22 12.02,6.83 12.07,6.8 0,0 2.96,1.14 4.66,0.03 2.82,-1.85 4.37,-6.86 -0.74,-11.22 -2.55,-2.17 -4.37,-2.71 -4.62,-6.16 -0.14,-1.87 -2.65,-8.05 -6.89,-7.51 -0.35,0.04 -0.71,0.08 -1.07,0.06 -0.49,-0.02 -1.31,0.05 -2.16,0.54 -2.41,1.41 -7.22,16.56 -1.25,17.45z"/>
   <path class="fil21" d="M203.96 95.32c-0.02,0.01 1.96,0.7 3.28,0.12 1.25,-0.54 2.2,-2.58 2.19,-2.58 -0.57,-0.03 -1.18,-0.53 -1.64,-3.78l-0.24 0.09 -4.06 1.43c0,0 0.28,1.3 0.46,2.54 0.15,1.04 0.23,2.04 0.01,2.18z"/>
   <path class="fil29" d="M203.48 90.6c0,0 0.17,0.91 0.41,2.22 2.33,-0.4 3.31,-2.39 3.65,-3.65l-4.06 1.43z"/>
   <path class="fil21" d="M202.87 91.88c0,0 5.55,-0.71 5.06,-4.16 -0.49,-3.45 -0.11,-5.87 -3.67,-5.56 -3.57,0.3 -4.06,1.72 -4.18,2.91 -0.11,1.19 1.34,6.9 2.8,6.81z"/>
   <path class="fil13" d="M200.29 83.19c0,0 3.53,3.08 5.94,3.35 2.41,0.26 3.33,-0.5 3.33,-0.5 0,0 -1.41,-1.19 -2.26,-3.11 -0.25,-0.56 -0.78,-0.95 -1.39,-1.01 -1.72,-0.16 -4.99,-0.25 -5.63,1.27z"/>
   <path class="fil13" d="M202.51 82.93c0,0 -1.2,1.14 -1.58,1.99 -0.37,0.82 -0.49,2.78 -0.21,3.57 0,0 -1.83,-3.61 -0.76,-5.35 1.12,-1.85 2.55,-0.21 2.55,-0.21z"/>
   <path class="fil22" d="M199.23 103.46c0.09,11.23 -0.02,8.88 1.2,9.96 0.29,0.26 1.13,0.42 2.22,0.5 3.44,0.25 9.5,-0.27 9.73,-0.91 0.81,-2.2 0.25,-2.88 0.94,-6.25 0.07,-0.36 0.16,-0.74 0.26,-1.17 0.57,-2.31 1.11,-3.1 -0.82,-6.83 -1.75,-3.38 -3.58,-6.13 -3.75,-6.03 -4.71,2.75 -5.07,0.41 -5.07,0.41 0,0 -4.76,4.84 -4.72,10.32z"/>
   <path class="fil14" d="M187.01 132.33l3.54 9.73c0,0 0.98,0.1 1.92,-0.16 0.86,-0.24 1.86,-0.89 1.86,-0.89 0,0 -0.93,-10.42 -2.75,-16.42l-4.56 7.74z"/>
   <path class="fil22" d="M203.95 93.14c0,0 -4.83,0.78 -5.41,2.86 -0.58,2.07 -4,14.26 -4,14.26 0,0 2.45,0.46 3.59,-0.67 1.14,-1.13 4.02,-10.49 4.02,-10.49l1.81 -5.97z"/>
   <path class="fil30" d="M202.65 113.91c3.44,0.25 9.5,-0.27 9.73,-0.91 0.81,-2.2 0.25,-2.88 0.94,-6.25l-1.63 -4.69c0,0 0.24,5.21 -1.31,6.57 -1.54,1.36 -6.31,2.6 -7.06,3.74 -0.36,0.55 -0.61,1.1 -0.68,1.54z"/>
   <path class="fil21" d="M206.61 111.75c0,0 -3.39,-0.78 -3.94,-0.48 -0.55,0.3 -1.9,1.39 -2.07,1.77 -0.17,0.38 1.22,-0.28 1.67,-0.4 0.29,-0.08 1.06,0.2 1.44,0.33 1.6,0.55 2.58,0.28 2.58,0.28l0.31 -1.49z"/>
   <path class="fil22" d="M209.02 92.73c0,0 4.56,0.31 6.12,2.53 2.2,3.11 6.52,16.36 3.98,18.1 -2.86,1.96 -12.95,0.43 -12.95,0.43 0,0 -0.33,-1.57 0.15,-2.33 0.47,-0.76 8.09,-1.93 8.44,-2.28 0.35,-0.35 -4.34,-6.87 -4.33,-7.93 0.01,-1.05 -1.4,-8.52 -1.4,-8.52z"/>
   <path class="fil21" d="M202.5 112.21c0,0 -0.72,0.91 -0.95,1.02 -0.23,0.11 -0.39,0.08 -0.39,0.08l0.49 -0.86 0.85 -0.24z"/>
   <path class="fil21" d="M202.67 111.27l-2.08 0.99c0,0 0.09,0.14 0.34,0.13 0.25,-0.01 0.9,-0.24 0.9,-0.24l0.84 -0.89z"/>
   <polygon class="fil9" points="201.99,114.72 185.62,114.6 180.79,102.32 197.13,102.44 "/>
   <polygon class="fil10" points="185.43,114.12 207.05,114.27 207.04,114.75 185.62,114.6 "/>
   <path class="fil24" d="M189.8 108.51c-0.12,-0.43 0.13,-0.78 0.56,-0.78 0.43,0 0.88,0.36 1,0.79 0.12,0.43 -0.13,0.78 -0.56,0.78 -0.43,-0 -0.88,-0.36 -1,-0.79z"/>
   <polygon class="fil31" points="152.25,153.36 152.25,163.25 102.52,163.24 102.52,153.35 "/>
   <path class="fil15" d="M102.52 163.24l-7.31 -3.13 -4.25 -1.82 4.35 -1.86 7.21 -3.08c0,0 0.96,2.41 0.98,4.67 0.02,3.55 -0.98,5.22 -0.98,5.22z"/>
   <path class="fil15" d="M158.03 156.64l0 3.12c-0,1.92 -1.56,3.48 -3.48,3.48l-2.3 0 0 -9.89 2.5 0c1.81,0 3.28,1.47 3.28,3.28z"/>
   <path class="fil14" d="M95.31 156.43c0.18,1 0.34,2.53 -0.1,3.68l-4.25 -1.82 4.35 -1.86z"/>
   <path class="fil9" d="M113.21 101.88c0,0 0.89,3.87 3.49,3.87 2.23,0 5.28,-5.03 5.28,-5.03l-8.77 1.17z"/>
   <path class="fil14" d="M143.02 158.96l-1.67 1.15c0,0 -8.02,-8.55 -9.96,-16.75 -0.34,-1.46 -0.48,-2.91 -0.34,-4.28 0,0 -0.12,-0.37 -0.32,-1.03 -0.01,-0.03 -0.02,-0.06 -0.03,-0.09 -0.09,-0.29 -0.2,-0.63 -0.32,-1.01 -0.39,-1.24 -0.92,-2.93 -1.53,-4.86 -1.4,-4.44 -4.61,-14.46 -5.98,-18.62l9.85 -3.56c0,0 1.12,2.55 2.73,9.48 0.25,0.9 0.49,1.91 0.73,3 0.26,1.24 0.51,2.59 0.71,4.05 0.35,2.47 0.58,5.25 0.59,8.3 0.01,1.24 -0.02,2.53 -0.1,3.85 -0.05,0.97 0.09,2.27 0.36,3.75 1.24,6.75 5.27,16.62 5.27,16.62z"/>
   <path class="fil13" d="M148.27 163.09l-7.96 0c0,0 -0.3,-1.27 0.22,-2.13 0.46,-0.77 0.29,-1.2 -0.06,-1.83 0.36,0.15 0.83,0.28 1.34,0.25 0.4,-0.02 0.82,-0.2 1.18,-0.42 0.34,0.39 1.81,2.05 2.27,2.38 0.52,0.37 2.84,0.24 3,1.75z"/>
   <path class="fil13" d="M136.89 126.44l-6.19 11.53c-0.09,-0.29 -0.2,-0.63 -0.32,-1.01 -0.39,-1.24 -0.92,-2.93 -1.53,-4.86 -1.4,-4.44 -4.61,-14.46 -5.98,-18.62l9.85 -3.56c0,0 1.12,2.55 2.73,9.48 0.25,0.9 0.49,1.91 0.73,3 0.26,1.24 0.51,2.59 0.71,4.05z"/>
   <path class="fil13" d="M122.72 160.59c0,0 -0.55,1.35 -0.03,2.49l4.33 0c0,0 0.09,-1.03 -1.48,-2.22 -1.19,-0.9 -2.82,-0.27 -2.82,-0.27z"/>
   <path class="fil32" d="M127.43 72.55c0,-0.22 0.11,-2.54 3.65,-2.75 0,0 -1.73,0.25 -2.02,1.02 0,0 1.16,-0.97 2.13,-0.69 0.97,0.28 1.58,1.96 1.6,2.51 0.02,0.56 -0.47,2.36 -1.08,2.53 -0.23,0.06 -0.5,0.05 -0.74,0.02 0.17,0.25 0.34,0.53 0.49,0.84 1.48,2.86 0.2,6.23 -1,5.95 -0.77,-0.18 -1.24,1.15 -1.24,1.15l-7.41 -6.37c0,0 2.6,-5.72 5.62,-4.2z"/>
   <path class="fil21" d="M122.77 91.92c0.82,0.57 1.85,1.04 3.15,1.34 4.85,1.12 6.71,-2.98 7.41,-5.79 -0.66,-0.38 -1.28,-0.46 -1.64,-0.5 -0.35,-0.04 -0.72,-0.07 -1.02,-0.08 -0.54,-0.42 -1.36,-2.12 -1.54,-4.77l-0.23 0.06 -3.82 1.05c0,0 0.17,1.21 0.26,2.36 0.07,0.9 0.08,1.76 -0.09,1.97 -0.3,0.06 -0.48,0.11 -0.48,0.11l-0 0c-0.05,0.08 -1.16,1.91 -1.99,4.27z"/>
   <path class="fil20" d="M125.07 83.21c0,0 0.18,1.21 0.26,2.36 2.16,-0.22 3.17,-2.28 3.56,-3.41l-3.82 1.05z"/>
   <path class="fil21" d="M125.03 85.03c0,0 4.99,-1.28 4.14,-4.37 -0.85,-3.09 -0.77,-5.34 -3.99,-4.65 -3.22,0.69 -3.51,2.04 -3.48,3.14 0.03,1.1 2.01,6.14 3.33,5.89z"/>
   <path class="fil32" d="M121.37 77.38c0.51,-1.14 1.15,-1.1 1.55,-0.91 2.3,-2.24 4.66,-0.51 4.66,-0.51 0.94,2.13 2.89,2.96 2.89,2.96 0,0 -0.75,0.81 -2.98,0.84 -0.68,0.01 -1.37,-0.29 -2.01,-0.7 1.23,1.18 2.66,1.89 2.66,1.89 -2.81,-0.47 -4.76,-3.66 -4.96,-4 -0.23,0.36 -0.66,1.11 -0.69,1.74 -0.03,0.86 0.3,2.51 -0.19,2.58 0,0 -1.7,-2.18 -0.93,-3.89z"/>
   <path class="fil21" d="M123.59 87.39c0,0 8.37,-2.03 12.01,0.97l-1.82 25.37 -16.37 -3.96c0,0 0.46,-1.6 3.6,-5.87 3.14,-4.27 1.77,-10.53 2.58,-16.51z"/>
   <path class="fil14" d="M128.47 110.91c0,0 -0.01,0.09 -0.03,0.25 -0.01,0.07 -0.02,0.16 -0.03,0.25 -0.07,0.66 -0.2,1.92 -0.38,3.56 -0.45,4.3 -1.15,11.21 -1.64,16.67 -0.38,4.27 -0.61,7.64 -0.49,8.18 0.39,1.63 0,21.13 0,21.13 -1.39,0.67 -3.5,0 -3.5,0 0,0 -3.71,-17.57 -3.19,-20.01 0.52,-2.44 -0.35,-4.53 -0.35,-4.53 -2.88,-13.4 -2.56,-20.83 -1.99,-24.39 0.17,-1.03 0.35,-1.74 0.49,-2.17 0.12,-0.37 0.2,-0.53 0.2,-0.53 6.35,-1.71 10.89,1.59 10.89,1.59z"/>
   <path class="fil9" d="M136.74 95.59c-0.4,3.05 -2.02,6.79 -2.6,8.8 0,0 0.97,6.98 0.04,8.9 -0.1,0.22 -0.23,0.37 -0.39,0.44 -3.41,1.49 -16.71,0.04 -17.27,-4.25 -0.2,-1.56 5.06,-7.04 5.37,-7.71 0.13,-0.28 0.26,-1.17 -0.36,-3.02 -0.88,2.7 -5.71,1.92 -5.71,1.92 0.57,-0.97 1.98,-7.68 3.56,-10.72 1.19,-2.28 4.35,-2.61 4.35,-2.61 0,0 1.32,2.09 4.51,1.79 3.19,-0.3 3.77,-2.25 3.77,-2.25 0,0 2.83,0.38 3.7,1.08 0.15,0.12 1.55,3.61 1.02,7.61z"/>
   <path class="fil10" d="M134.14 104.39c0,0 0.97,6.98 0.04,8.9 -2.49,-1.25 -4.45,-4.63 -4,-8.39 0.33,-2.78 0.83,-3.42 2.32,-5.01 1.09,-1.17 3.62,-1.24 3.42,-0.68 -0.59,1.66 -1.49,4.12 -1.79,5.18z"/>
   <polygon class="fil26" points="123.75,96.14 129.45,105.28 119.75,105.28 114.32,96.34 "/>
   <polygon class="fil27" points="129.16,104.83 129.26,104.51 123.86,95.85 123.75,96.14 "/>
   <polygon class="fil15" points="123.86,95.85 114.72,96.11 114.32,96.34 123.75,96.14 "/>
   <polygon class="fil25" points="114.32,96.34 109.19,93.56 115.17,102.95 119.75,105.28 "/>
   <path class="fil21" d="M141.45 102.75c-0.55,0.25 -1.96,1.91 -2.46,2.08 -2.26,0.76 -11.89,-1.26 -11.89,-1.26l0.3 -1.69c0,0 9.45,0.25 10.49,-0.03 0.2,-0.05 1.22,-1.65 1.61,-1.88l1.95 2.77z"/>
   <path class="fil21" d="M127.4 101.88c0,0 -1.14,-0.93 -1.91,-0.72 -0.77,0.21 -1.9,1.18 -2.32,1.41 -0.42,0.23 -1.56,1.05 -0.98,1.55 0.58,0.5 2.38,0.07 3.1,-0.31 0.71,-0.38 1.82,-0.25 1.82,-0.25l0.3 -1.69z"/>
   <path class="fil21" d="M125.71 101.13c0,0 -1.38,-0.16 -1.76,-0.16 -0.38,0.01 -0.27,0.09 -0.07,0.38 0.21,0.29 0.93,0.41 0.96,0.51 0.03,0.1 0.87,-0.74 0.87,-0.74z"/>
   <path class="fil9" d="M132.01 86.91c0,0 4.11,0.49 5.24,2.25 1.43,2.23 4.8,11.09 4.69,13.33 0,0 -2.47,4.2 -10.93,3.53 0,0 -0.88,-3.11 0.9,-4.13 0,0 4.34,-0.77 4.84,-1.21l-3.54 -6.44 -1.21 -7.32z"/>
   <path class="fil21" d="M115.64 99.68c-0.13,-0.52 -1.26,-0.19 -1.64,0.1 -0.09,0.07 -0.19,0.2 -0.29,0.34 -0.01,-0.09 -0.02,-0.17 -0.03,-0.23 -0.02,-0.24 -0.3,-0.68 -0.37,-0.35 -0.07,0.33 -0.19,1.7 -0.19,1.7 -0.01,1.1 0.7,1.56 1.15,1.2 0.46,-0.36 1.49,-2.23 1.36,-2.75z"/>
  </g>
 </g>
</svg>
