<?xml version="1.0" ?><svg height="252px" version="1.1" viewBox="0 0 328 252" width="328px" xmlns="http://www.w3.org/2000/svg" xmlns:xlink="http://www.w3.org/1999/xlink"><title/><desc/><defs><path d="M0,72.0027826 C0,60.9555508 8.96346573,52 20.0067744,52 L59.9932256,52 C71.042662,52 87.1698706,46.6225971 95.9969199,40.0023101 L144.00308,3.9976899 C152.837935,-2.62845126 160,0.949788511 160,11.9969141 L160,232.003086 C160,243.047077 152.830129,246.622597 144.00308,240.00231 L95.9969199,203.99769 C87.162065,197.371549 71.0365343,192 59.9932256,192 L20.0067744,192 C8.95733801,192 0,183.042775 0,171.997217 L0,72.0027826 L0,72.0027826 Z" id="path-1"/><filter filterUnits="objectBoundingBox" height="200%" id="filter-2" width="200%" x="-50%" y="-50%"><feOffset dx="0" dy="4" in="SourceAlpha" result="shadowOffsetOuter1"/><feGaussianBlur in="shadowOffsetOuter1" result="shadowBlurOuter1" stdDeviation="2"/><feColorMatrix in="shadowBlurOuter1" type="matrix" values="0 0 0 0 0   0 0 0 0 0   0 0 0 0 0  0 0 0 0.5 0"/></filter><path d="M188,186 C223.346224,186 252,157.346224 252,122 C252,86.653776 223.346224,58 188,58 C183.581722,58 180,61.581722 180,66 C180,70.418278 183.581722,74 188,74 C188.198534,74 188.395379,73.992768 188.590286,73.9785532 C214.841756,74.2947443 236.025,95.6735662 236.025,122 C236.025,148.326434 214.841756,169.705256 188.590286,170.021447 C188.395379,170.007232 188.198534,170 188,170 C183.581722,170 180,173.581722 180,178 C180,182.418278 183.581722,186 188,186 L188,186 Z" id="path-3"/><filter filterUnits="objectBoundingBox" height="200%" id="filter-4" width="200%" x="-50%" y="-50%"><feOffset dx="0" dy="4" in="SourceAlpha" result="shadowOffsetOuter1"/><feGaussianBlur in="shadowOffsetOuter1" result="shadowBlurOuter1" stdDeviation="2"/><feColorMatrix in="shadowBlurOuter1" type="matrix" values="0 0 0 0 0   0 0 0 0 0   0 0 0 0 0  0 0 0 0.5 0"/></filter><path d="M200,242 C266.27417,242 320,188.27417 320,122 C320,55.7258336 266.274176,2.00000574 200.000011,2 C194.477153,2 190,6.4771525 190,12 C190,17.5228475 194.477153,22 200,22 C200.221156,22 200.440635,21.9928208 200.658218,21.9786828 C255.596708,22.3327241 300.023438,66.9781527 300.023438,122 C300.023438,177.021847 255.596708,221.667276 200.658218,222.021317 C200.440635,222.007179 200.221156,222 200,222 C194.477153,222 190,226.477153 190,232 C190,237.522847 194.477153,242 200,242 L200,242 Z" id="path-5"/><filter filterUnits="objectBoundingBox" height="200%" id="filter-6" width="200%" x="-50%" y="-50%"><feOffset dx="0" dy="4" in="SourceAlpha" result="shadowOffsetOuter1"/><feGaussianBlur in="shadowOffsetOuter1" result="shadowBlurOuter1" stdDeviation="2"/><feColorMatrix in="shadowBlurOuter1" type="matrix" values="0 0 0 0 0   0 0 0 0 0   0 0 0 0 0  0 0 0 0.5 0"/></filter></defs><g fill="none" fill-rule="evenodd" id="Page-1" stroke="none" stroke-width="1"><g id="sound" transform="translate(4.000000, 0.000000)"><g id="Combined-Shape"><use fill="black" fill-opacity="1" filter="url(#filter-2)" xlink:href="#path-1"/><use fill="#697F9B" fill-rule="evenodd" xlink:href="#path-1"/></g><g id="Combined-Shape"><use fill="black" fill-opacity="1" filter="url(#filter-4)" xlink:href="#path-3"/><use fill="#67ADD5" fill-rule="evenodd" xlink:href="#path-3"/></g><g id="Combined-Shape-Copy"><use fill="black" fill-opacity="1" filter="url(#filter-6)" xlink:href="#path-5"/><use fill="#67ADD5" fill-rule="evenodd" xlink:href="#path-5"/></g></g></g></svg>